<mxfile host="app.diagrams.net" agent="Mozilla/5.0 (Windows NT 10.0; Win64; x64; rv:140.0) Gecko/20100101 Firefox/140.0" version="27.2.0">
  <diagram name="Page-1" id="QQZrIs4CrqJh7NB-zQRz">
    <mxGraphModel dx="1426" dy="779" grid="1" gridSize="10" guides="1" tooltips="1" connect="1" arrows="1" fold="1" page="1" pageScale="1" pageWidth="1169" pageHeight="827" math="0" shadow="0">
      <root>
        <mxCell id="0" />
        <mxCell id="1" parent="0" />
        <mxCell id="ZbL8y_YeccmDs9mHFJwM-3" value="Customer" style="shape=umlActor;verticalLabelPosition=bottom;verticalAlign=top;html=1;outlineConnect=0;" vertex="1" parent="1">
          <mxGeometry x="60" y="74" width="10" height="20" as="geometry" />
        </mxCell>
        <mxCell id="ZbL8y_YeccmDs9mHFJwM-4" value="Ruby Mobile" style="shape=rect;fillColor=#EE5396;aspect=fixed;resizable=0;labelPosition=center;verticalLabelPosition=bottom;align=center;verticalAlign=top;strokeColor=none;fontSize=14;" vertex="1" parent="1">
          <mxGeometry x="250" y="60" width="48" height="48" as="geometry" />
        </mxCell>
        <mxCell id="ZbL8y_YeccmDs9mHFJwM-5" value="" style="fillColor=#ffffff;strokeColor=none;dashed=0;outlineConnect=0;html=1;labelPosition=center;verticalLabelPosition=bottom;verticalAlign=top;part=1;movable=0;resizable=0;rotatable=0;shape=mxgraph.ibm_cloud.ibm--toolchain" vertex="1" parent="ZbL8y_YeccmDs9mHFJwM-4">
          <mxGeometry width="24" height="24" relative="1" as="geometry">
            <mxPoint x="12" y="12" as="offset" />
          </mxGeometry>
        </mxCell>
        <mxCell id="ZbL8y_YeccmDs9mHFJwM-6" value="" style="points=[];aspect=fixed;html=1;align=center;shadow=0;dashed=0;fillColor=#FF6A00;strokeColor=none;shape=mxgraph.alibaba_cloud.vswitch;" vertex="1" parent="1">
          <mxGeometry x="470" y="65.25" width="52.5" height="37.5" as="geometry" />
        </mxCell>
        <mxCell id="ZbL8y_YeccmDs9mHFJwM-7" value="BREFT Switch" style="text;html=1;align=center;verticalAlign=middle;whiteSpace=wrap;rounded=0;" vertex="1" parent="1">
          <mxGeometry x="451.25" y="108" width="90" height="30" as="geometry" />
        </mxCell>
        <mxCell id="ZbL8y_YeccmDs9mHFJwM-9" value="Orbit" style="image;html=1;image=img/lib/clip_art/computers/Database_128x128.png" vertex="1" parent="1">
          <mxGeometry x="340" y="170" width="64" height="64" as="geometry" />
        </mxCell>
      </root>
    </mxGraphModel>
  </diagram>
</mxfile>
